<?xml version="1.0" encoding="utf-8"?>
<!-- Generator: Adobe Illustrator 22.1.0, SVG Export Plug-In . SVG Version: 6.00 Build 0)  -->
<svg version="1.1" id="Layer_1" xmlns="http://www.w3.org/2000/svg" xmlns:xlink="http://www.w3.org/1999/xlink" x="0px" y="0px"
	 viewBox="0 0 325.4 214.6" style="enable-background:new 0 0 325.4 214.6;" xml:space="preserve">
<style type="text/css">
	.st0{fill:#C7C6C5;}
	.st1{fill:#065C80;}
	.st2{fill:#FFFFFF;}
	.st3{opacity:0.5;fill:#C7C6C5;}
	.st4{fill:#67C0CC;}
	.st5{opacity:0.5;fill:#FFFFFF;}
	.st6{opacity:0.4;fill:#065C80;}
</style>
<rect x="0.7" width="324.8" height="214.7"/>
<g>
	<path class="st0" d="M270.5,146.1c0-5.3-11.7-9.7-26.1-9.7c-14.4,0-26.1,4.3-26.1,9.7c5.7,5.4,11.7,9.7,26.1,9.7
		C258.8,155.8,267.6,149.9,270.5,146.1z"/>
	<g>
		<path class="st1" d="M222.5,99.5c0.5,9.1-3.8,16.8-9.6,17.1c-5.8,0.3-11-6.8-11.5-15.9c-0.5-9.1,3.8-16.8,9.6-17.1
			C216.8,83.2,221.9,90.3,222.5,99.5z"/>
	</g>
	<g>
		<path class="st1" d="M266.4,99.5c-0.5,9.1,3.8,16.8,9.6,17.1c5.8,0.3,11-6.8,11.5-15.9c0.5-9.1-3.8-16.8-9.6-17.1
			C272.1,83.2,266.9,90.3,266.4,99.5z"/>
	</g>
	<g>
		<g>
			<path class="st1" d="M283.7,98.9c-0.7,0-1.3-0.3-1.7-0.9c-0.5-0.9-0.3-2.1,0.7-2.7c0.6-0.4,14.5-9,13.5-29.2
				c-0.1-1.1,0.8-2,1.8-2c1.1-0.1,2,0.8,2,1.8c1.1,22.6-14.7,32.3-15.4,32.7C284.3,98.8,284,98.9,283.7,98.9z"/>
			<path class="st1" d="M296.6,67.5c-4,0-7.6-2.7-8.6-6.7c-0.3-1,0.4-2.1,1.4-2.3c1-0.3,2.1,0.4,2.3,1.4c0.7,2.7,3.4,4.3,6,3.6
				c1.3-0.3,2.4-1.1,3.1-2.3c0.7-1.1,0.9-2.5,0.6-3.8c-0.3-1,0.4-2.1,1.4-2.3c1-0.3,2.1,0.4,2.3,1.4c0.6,2.3,0.2,4.7-1,6.7
				c-1.2,2-3.2,3.5-5.4,4C298.1,67.4,297.3,67.5,296.6,67.5z"/>
		</g>
		<path class="st2" d="M289.6,83.1l7.6,6.9c0,0,4.3-7.4,4.1-14.7l-6.8-2.7C294.5,72.6,292.2,79.8,289.6,83.1z"/>
	</g>
	<path class="st1" d="M244.4,173.3c-8.3,0-17.3-10.4-24.9-28.4c-6.4-15.2-10.8-33.9-10.8-45.6c0-9.9,3.3-16.7,10.2-20.8
		c5.7-3.4,14-5.1,25.5-5.1c11.5,0,19.8,1.7,25.5,5.1c6.8,4.1,10.2,10.9,10.2,20.8c0,11.7-4.4,30.4-10.8,45.6
		C261.8,162.9,252.7,173.3,244.4,173.3z"/>
	<path class="st2" d="M281.7,99.3c0-22.4-16.7-27.4-37.2-27.4c-20.6,0-37.2,5-37.2,27.4c0,8.8,2.6,22.4,7,35.6
		c6.6,2.7,14.2,4.6,22.3,5.3c0.2-4,3.5-7.2,7.5-7.2c4,0,7.3,3.2,7.5,7.2c8.5-0.8,16.5-2.8,23.4-5.7
		C279.1,121.4,281.7,108,281.7,99.3z"/>
	<path class="st3" d="M277.2,83.1c-6.3-8.8-18.6-11.3-32.8-11.3c-10.4,0-19.8,1.3-26.5,5.5c6.5,8.9,18.6,14.9,32.4,14.9
		C260.9,92.2,270.4,88.7,277.2,83.1z"/>
	<g>
		<path class="st1" d="M213.4,53.5c-0.1,5.9-1.8,10.7-3.9,10.6c-2,0-3.6-4.9-3.5-10.8c0.1-5.9,1.8-10.7,3.8-10.6
			C212,42.8,213.5,47.6,213.4,53.5z"/>
		<path class="st1" d="M276.5,54.6c-0.1,5.9,1.4,10.7,3.5,10.8c2,0,3.7-4.7,3.8-10.6c0.1-5.9-1.4-10.7-3.5-10.8
			C278.3,44,276.6,48.7,276.5,54.6z"/>
		<path class="st2" d="M282.3,54.7C282,71.1,265.1,84,244.4,83.7c-20.6-0.4-37.2-13.9-36.9-30.3c0.3-16.4,17.3-29.3,37.9-28.9
			C266.1,24.8,282.6,38.4,282.3,54.7z"/>
		<path class="st4" d="M225.9,69.2c-5.4-0.1-9.6-4.5-9.6-9.9l0.2-11.6c0.1-5.4,4.5-9.6,9.9-9.6l37.5,0.7c5.4,0.1,9.6,4.5,9.6,9.9
			l-0.2,11.6c-0.1,5.4-4.5,9.6-9.9,9.6L225.9,69.2z"/>
		<path class="st1" d="M272.1,48.8c0.1-4.6-3.6-8.4-8.2-8.5l-37.5-0.7c-4.6-0.1-8.4,3.6-8.5,8.2l-0.2,11.6c-0.1,4.6,3.6,8.4,8.2,8.5
			l37.5,0.7c4.6,0.1,8.4-3.6,8.5-8.2L272.1,48.8z"/>
		<path class="st2" d="M234.2,53.4c0-1.9-1.5-3.4-3.4-3.4s-3.4,1.5-3.4,3.4c0,1.9,1.5,3.4,3.4,3.4S234.2,55.3,234.2,53.4z"/>
		<path class="st2" d="M262.4,53.4c0-1.9-1.5-3.4-3.4-3.4s-3.4,1.5-3.4,3.4c0,1.9,1.5,3.4,3.4,3.4S262.4,55.3,262.4,53.4z"/>
		<path class="st5" d="M271.7,45.9l-15.2,22.5l4.8,0.1l10.9-16l0.1-3.7C272.2,47.8,272,46.8,271.7,45.9z M265.8,40.5l-18.8,27.7
			l7.7,0.1L271,44.4C269.9,42.5,268.1,41.1,265.8,40.5z M218.1,61.7c0.4,1.5,1.2,2.8,2.3,3.8l17.4-25.7l-4.8-0.1L218.1,61.7z
			 M226.5,39.6c-1.2,0-2.3,0.2-3.3,0.6l-5.2,7.6l-0.2,11.5c0,0.1,0,0.2,0,0.3l13.6-20L226.5,39.6z"/>
		<g>
			
				<rect x="238.2" y="59.6" transform="matrix(1 -4.946851e-03 4.946851e-03 1 -0.2981 1.185)" class="st2" width="2.5" height="2.5"/>
			
				<rect x="248.1" y="59.6" transform="matrix(1 -5.107925e-03 5.107925e-03 1 -0.3073 1.2744)" class="st2" width="2.5" height="2.5"/>
			
				<rect x="240.7" y="62.1" transform="matrix(1 -4.906633e-03 4.906633e-03 1 -0.3078 1.1877)" class="st2" width="2.5" height="2.5"/>
			
				<rect x="245.6" y="62.1" transform="matrix(1 -4.904858e-03 4.904858e-03 1 -0.3075 1.2116)" class="st2" width="2.5" height="2.5"/>
			
				<rect x="243.1" y="62.1" transform="matrix(1 -5.105872e-03 5.105872e-03 1 -0.3201 1.2486)" class="st2" width="2.5" height="2.5"/>
		</g>
	</g>
	<path class="st2" d="M214.5,41.7c0,0,6.5-10.7,20.6-14.6c14.1-3.9,1.2,2.7-3.3,4.4C227.4,33.3,221.8,34.6,214.5,41.7z"/>
	<g>
		<path class="st1" d="M205.2,98.9c-0.3,0-0.7-0.1-1-0.3c-0.7-0.4-16.5-10.1-15.5-32.7c0-1.1,1-1.9,2-1.8c1.1,0,1.9,1,1.8,2
			c-0.9,20.3,13.5,29.1,13.6,29.2c0.9,0.5,1.2,1.7,0.7,2.7C206.5,98.6,205.9,98.9,205.2,98.9z"/>
		<path class="st1" d="M192.1,67.5c-0.7,0-1.4-0.1-2.1-0.3c-2.3-0.6-4.2-2-5.5-4c-1.2-2-1.6-4.4-1-6.7c0.3-1,1.3-1.7,2.3-1.4
			c1,0.3,1.7,1.3,1.4,2.3c-0.3,1.3-0.1,2.6,0.6,3.8c0.7,1.1,1.8,1.9,3.1,2.3c1.3,0.3,2.6,0.1,3.8-0.6c1.1-0.7,1.9-1.8,2.2-3.1
			c0.3-1,1.3-1.7,2.3-1.4c1,0.3,1.7,1.3,1.4,2.3c-0.6,2.3-2,4.2-4,5.5C195.3,67.1,193.7,67.5,192.1,67.5z"/>
		<path class="st2" d="M198.9,82.6l-7.9,6.5c0,0-3.9-7.6-3.4-14.8l6.9-2.4C194.5,71.9,196.5,79.1,198.9,82.6z"/>
	</g>
	<path class="st2" d="M244.4,152.7c-9.4,0-18.2-2.4-26.1-6.6c6.7,15.8,15.9,28.8,26.1,28.8c10.2,0,19.4-13,26.1-28.8
		C262.6,150.3,253.8,152.7,244.4,152.7z"/>
	<path class="st1" d="M249.9,148.4c0-4.3-2.8-7.8-6.2-7.8c-3.4,0-6.2,3.5-6.2,7.8c0,4.3,2.8,7.8,6.2,7.8
		C247.1,156.2,249.9,152.7,249.9,148.4z"/>
	<path class="st2" d="M247.3,145c0-3.9-1.6-7-3.6-7c-2,0-3.6,3.1-3.6,7c0,3.9,1.6,7,3.6,7C245.7,152,247.3,148.9,247.3,145z"/>
	<g>
		<path class="st1" d="M253.4,98.4c0-4.9-4-8.9-8.9-8.9c-4.9,0-8.9,4-8.9,8.9c0,4.9,4,8.9,8.9,8.9
			C249.4,107.3,253.4,103.3,253.4,98.4z"/>
		<g>
			<ellipse transform="matrix(0.9734 -0.229 0.229 0.9734 -16.041 58.5942)" class="st2" cx="244.4" cy="98.4" rx="7.5" ry="7.5"/>
			<path class="st1" d="M251,98.4c0-3.6-3-6.6-6.6-6.6c-3.6,0-6.6,3-6.6,6.6c0,3.6,3,6.6,6.6,6.6C248.1,105,251,102.1,251,98.4z"/>
			<path class="st5" d="M242.8,99.8c3.2,0,5.9-2.3,6.5-5.3c-1.1-1.4-2.9-2.4-4.9-2.4c-3.3,0-6,2.5-6.2,5.8
				C239.4,99.1,241,99.8,242.8,99.8z"/>
		</g>
	</g>
	<path class="st6" d="M270.5,190.1c0-2.8-12-5-26.7-5c-14.8,0-26.7,2.3-26.7,5c0,2.8,12,5,26.7,5
		C258.5,195.1,270.5,192.9,270.5,190.1z"/>
</g>
<g>
	<path class="st0" d="M102.8,146.1c0-5.3-11.7-9.7-26.1-9.7c-14.4,0-26.1,4.3-26.1,9.7c5.7,5.4,11.7,9.7,26.1,9.7
		C91.1,155.8,99.9,149.9,102.8,146.1z"/>
	<g>
		<path class="st1" d="M30.9,132.5c-0.8,0-1.6-0.5-1.9-1.4c-6.5-21.7,6.5-34.9,7.1-35.5c0.8-0.8,2-0.8,2.7,0c0.8,0.8,0.7,2,0,2.7
			c-0.5,0.5-11.9,12.2-6.1,31.6c0.3,1-0.3,2.1-1.3,2.4C31.3,132.4,31.1,132.5,30.9,132.5z"/>
		<path class="st1" d="M28.1,142.5c-0.7,0-1.4-0.4-1.7-1c-2.3-4.3-0.6-9.7,3.7-12c2.1-1.1,4.5-1.3,6.7-0.6c2.3,0.7,4.1,2.2,5.2,4.3
			c0.5,0.9,0.1,2.1-0.8,2.6c-0.9,0.5-2.1,0.1-2.6-0.8c-0.6-1.2-1.7-2-2.9-2.4c-1.3-0.4-2.6-0.3-3.8,0.4c-2.4,1.3-3.4,4.3-2.1,6.7
			c0.5,0.9,0.1,2.1-0.8,2.6C28.7,142.4,28.4,142.5,28.1,142.5z"/>
		<g>
			<path class="st1" d="M54.8,99.5c0.5,9.1-3.8,16.8-9.6,17.1c-5.8,0.3-11-6.8-11.5-15.9c-0.5-9.1,3.8-16.8,9.6-17.1
				C49.1,83.2,54.3,90.3,54.8,99.5z"/>
		</g>
	</g>
	<g>
		<g>
			<path class="st1" d="M122.9,132.4c-0.2,0-0.4,0-0.5-0.1c-1-0.3-1.6-1.4-1.3-2.4c5.7-19.5-6.3-31.4-6.4-31.6c-0.8-0.7-0.8-2,0-2.7
				c0.7-0.8,2-0.8,2.7,0c0.6,0.5,13.7,13.7,7.4,35.4C124.5,131.8,123.7,132.4,122.9,132.4z"/>
			<path class="st1" d="M125.8,142.4c-0.3,0-0.6-0.1-0.9-0.2c-0.9-0.5-1.3-1.7-0.8-2.6c0.6-1.2,0.7-2.5,0.3-3.8
				c-0.4-1.3-1.3-2.3-2.5-2.9c-1.2-0.6-2.5-0.7-3.8-0.3c-1.3,0.4-2.3,1.3-2.9,2.5c-0.5,0.9-1.7,1.3-2.6,0.8
				c-0.9-0.5-1.3-1.7-0.8-2.6c1.1-2.1,2.9-3.6,5.2-4.4c2.3-0.7,4.6-0.5,6.7,0.6c2.1,1.1,3.7,2.9,4.4,5.2c0.7,2.3,0.5,4.6-0.6,6.7
				C127.2,142,126.5,142.4,125.8,142.4z"/>
		</g>
		<g>
			<path class="st1" d="M98.7,99.5c-0.5,9.1,3.8,16.8,9.6,17.1c5.8,0.3,11-6.8,11.5-15.9c0.5-9.1-3.8-16.8-9.6-17.1
				C104.4,83.2,99.2,90.3,98.7,99.5z"/>
		</g>
	</g>
	<path class="st1" d="M76.8,173.3c-8.3,0-17.3-10.4-24.9-28.4c-6.4-15.2-10.8-33.9-10.8-45.6c0-9.9,3.3-16.7,10.2-20.8
		c5.7-3.4,14-5.1,25.5-5.1c11.5,0,19.8,1.7,25.5,5.1c6.8,4.1,10.2,10.9,10.2,20.8c0,11.7-4.4,30.4-10.8,45.6
		C94.1,162.9,85,173.3,76.8,173.3z"/>
	<path class="st2" d="M114,99.3c0-22.4-16.7-27.4-37.2-27.4c-20.6,0-37.2,5-37.2,27.4c0,8.8,2.6,22.4,7,35.6
		c6.6,2.7,14.2,4.6,22.3,5.3c0.2-4,3.5-7.2,7.5-7.2c4,0,7.3,3.2,7.5,7.2c8.5-0.8,16.5-2.8,23.4-5.7C111.5,121.4,114,108,114,99.3z"
		/>
	<path class="st3" d="M109.6,83.1c-6.3-8.8-18.6-11.3-32.8-11.3c-10.4,0-19.8,1.3-26.6,5.5c6.5,8.9,18.6,14.9,32.4,14.9
		C93.2,92.2,102.8,88.7,109.6,83.1z"/>
	<g>
		<path class="st1" d="M49.3,50.3c-0.8,5.9-3,10.4-5,10.1c-2-0.3-3-5.2-2.3-11.1c0.8-5.9,3-10.4,5-10.1C49,39.4,50,44.4,49.3,50.3z"
			/>
		<path class="st1" d="M111.8,58.3c-0.8,5.9,0.3,10.8,2.3,11.1c2,0.3,4.2-4.3,5-10.1c0.8-5.9-0.3-10.8-2.3-11.1
			C114.8,47.9,112.6,52.5,111.8,58.3z"/>
		<path class="st2" d="M117.6,59.1c-2.1,16.2-20.4,27.2-40.9,24.6C56.3,81,41.4,65.7,43.5,49.5c2.1-16.2,20.4-27.2,40.9-24.6
			C104.8,27.6,119.7,42.9,117.6,59.1z"/>
		<path class="st4" d="M60,67.3c-5.3-0.7-9.1-5.6-8.4-10.9L53,44.9c0.7-5.3,5.6-9.1,10.9-8.4l37.2,4.8c5.3,0.7,9.1,5.6,8.4,10.9
			L108,63.7c-0.7,5.3-5.6,9.1-10.9,8.4L60,67.3z"/>
		<path class="st1" d="M108.2,52c0.6-4.6-2.6-8.7-7.2-9.3l-37.2-4.8c-4.6-0.6-8.7,2.6-9.3,7.2l-1.5,11.5c-0.6,4.6,2.6,8.7,7.2,9.3
			l37.2,4.8c4.6,0.6,8.7-2.6,9.3-7.2L108.2,52z"/>
		<path class="st2" d="M66.9,50.3c-1.4-0.2-2.7-0.6-3.7-1.2c-0.1,0.2-0.1,0.4-0.2,0.7c-0.3,2.1,1.2,4.1,3.3,4.3
			c2.1,0.3,4.1-1.2,4.3-3.3c0-0.2,0-0.5,0-0.7C69.6,50.4,68.3,50.4,66.9,50.3z"/>
		<g>
			
				<rect x="83.1" y="63.8" transform="matrix(0.1397 -0.9902 0.9902 0.1397 8.1576 139.4699)" class="st2" width="2.5" height="2.5"/>
			
				<rect x="73.3" y="62.4" transform="matrix(0.1398 -0.9902 0.9902 0.1398 1.0557 128.5153)" class="st2" width="2.5" height="2.5"/>
			<rect x="81" y="61" transform="matrix(0.1398 -0.9902 0.9902 0.1398 9.1178 134.9552)" class="st2" width="2.5" height="2.5"/>
			<rect x="76.1" y="60.3" transform="matrix(0.1398 -0.9902 0.9902 0.1398 5.57 129.4812)" class="st2" width="2.5" height="2.5"/>
			
				<rect x="78.5" y="60.6" transform="matrix(0.1396 -0.9902 0.9902 0.1396 7.3555 132.2302)" class="st2" width="2.5" height="2.5"/>
		</g>
		<path class="st2" d="M94.2,53.8c-2-0.3-3.7-1.1-4.9-2.1c-0.2,0.5-0.3,0.9-0.4,1.5c-0.4,2.9,1.7,5.6,4.6,6c2.9,0.4,5.6-1.7,6-4.6
			c0.1-0.5,0.1-1,0-1.5C98.1,53.7,96.2,54,94.2,53.8z"/>
		<path class="st5" d="M108,49.2L90.4,69.8l4.7,0.6l12.6-14.7l0.5-3.7C108.3,51,108.2,50.1,108,49.2z M102.8,43.2L81.1,68.6l7.7,1
			l18.8-22C106.6,45.6,104.9,44,102.8,43.2z M53,58.9c0.2,1.5,0.9,2.9,1.8,4L75,39.3l-4.7-0.6L53,58.9z M63.8,37.9
			c-1.2-0.2-2.3-0.1-3.4,0.3l-6,7l-1.5,11.4c0,0.1,0,0.2,0,0.3l15.7-18.4L63.8,37.9z"/>
	</g>
	<path class="st2" d="M46.8,41.7c0,0,6.5-10.7,20.6-14.6c14.1-3.9,1.2,2.7-3.3,4.4C59.7,33.3,54.1,34.6,46.8,41.7z"/>
	<path class="st2" d="M118.6,111.8l9-4.9c0,0,2.4,8.2,0.5,15.2l-7.2,1C120.9,123.2,120.3,115.7,118.6,111.8z"/>
	<path class="st2" d="M35,112.5l-9.3-4.4c0,0-1.9,8.3,0.3,15.2l7.2,0.6C33.3,123.9,33.5,116.4,35,112.5z"/>
	<path class="st2" d="M76.8,152.7c-9.4,0-18.2-2.4-26.1-6.6c6.7,15.8,15.9,28.8,26.1,28.8c10.2,0,19.4-13,26.1-28.8
		C95,150.3,86.1,152.7,76.8,152.7z"/>
	<path class="st1" d="M82.2,148.4c0-4.3-2.8-7.8-6.2-7.8c-3.4,0-6.2,3.5-6.2,7.8c0,4.3,2.8,7.8,6.2,7.8
		C79.4,156.2,82.2,152.7,82.2,148.4z"/>
	<path class="st2" d="M79.6,145c0-3.9-1.6-7-3.6-7c-2,0-3.6,3.1-3.6,7c0,3.9,1.6,7,3.6,7C78,152,79.6,148.9,79.6,145z"/>
	<g>
		<path class="st1" d="M85.7,98.4c0-4.9-4-8.9-8.9-8.9c-4.9,0-8.9,4-8.9,8.9c0,4.9,4,8.9,8.9,8.9C81.7,107.3,85.7,103.3,85.7,98.4z"
			/>
		<g>
			<path class="st2" d="M84.3,98.4c0-4.1-3.4-7.5-7.5-7.5c-4.1,0-7.5,3.4-7.5,7.5c0,4.1,3.4,7.5,7.5,7.5
				C80.9,105.9,84.3,102.6,84.3,98.4z"/>
			<path class="st1" d="M83.4,98.4c0-3.6-3-6.6-6.6-6.6c-3.6,0-6.6,3-6.6,6.6c0,3.6,3,6.6,6.6,6.6C80.4,105,83.4,102.1,83.4,98.4z"
				/>
			<path class="st5" d="M75.2,99.8c3.2,0,5.9-2.3,6.5-5.3c-1.1-1.4-2.9-2.4-4.9-2.4c-3.3,0-6,2.5-6.2,5.8
				C71.7,99.1,73.4,99.8,75.2,99.8z"/>
		</g>
	</g>
	<path class="st6" d="M102.8,190.1c0-2.8-12-5-26.7-5c-14.8,0-26.7,2.3-26.7,5c0,2.8,12,5,26.7,5
		C90.9,195.1,102.8,192.9,102.8,190.1z"/>
</g>
</svg>
