<svg id="Layer_1" data-name="Layer 1" xmlns="http://www.w3.org/2000/svg" viewBox="0 0 566.93 227.52"><defs><style>.cls-1{fill:#132945;}.cls-2{fill:#102036;}.cls-3{fill:#0e1e34;}.cls-4{fill:#fff;}.cls-5{fill:#204169;}.cls-6{fill:#066272;}.cls-7{fill:#035969;}.cls-8{fill:#00878f;}.cls-9{fill:#027b82;}.cls-10{fill:#00b9ad;}.cls-11{fill:#00ada2;}.cls-12{fill:#c6e6f4;}.cls-13{fill:#63cdf6;}.cls-14{fill:#ffe970;}.cls-15{fill:#de6d5c;}.cls-16{fill:#283f5e;}.cls-17{fill:#a3bacc;}.cls-18{fill:#62788a;}.cls-19{fill:#db3549;}.cls-20{fill:#dedfe0;}.cls-21{fill:#e4e5e6;}.cls-22{fill:#33b0bc;}.cls-23{fill:#a3a4a5;}.cls-24{fill:#74cdd9;}.cls-25{fill:#abdfe7;}.cls-26{fill:#253b59;}.cls-27{fill:#0090c4;}.cls-28{fill:#bed630;}.cls-29{fill:#9bd6c8;}.cls-30{fill:#4faf98;}.cls-31{fill:#47ad94;}.cls-32{fill:#3d8a77;}.cls-33{fill:#febe10;}.cls-34{fill:#f2b42c;}.cls-35{fill:#a52438;}</style></defs><title>shutterstock_1051010930</title><rect class="cls-1" x="0.13" width="566.93" height="227.52"/><path class="cls-2" d="M48.55,84.75c26.5,15.5,54,13.41,88,9.22C173,89.47,253.72,70.44,255.22,77.56c.89,4.21-115.67,23.11-112.67,37.78s62,5.44,63.5,13-96.5,9.11-155,54.37c-37.5,29-23.5,2.19,4.5-16.24s39.66-40.19,11-50.29c-44-15.5-49.22-60-41-56.56C29.55,61.28,35.59,77.16,48.55,84.75Z"/><path class="cls-2" d="M394.39,141.67c-27.85,6.42-89.34,23.47-77.34,29.05s82.17-13.81,129.5,1.84,31.84-2.95,9.17-8-83.33-.56-61.33-10.06S421.05,135.53,394.39,141.67Z"/><path class="cls-3" d="M432.39,63.5c88.66,18.63-12.67,32.69-148,75.81-77.65,24.74-78.67,69.74,100.67,50.58,80-8.55,129.66,18.62,137.8,36.8H21.79a32.32,32.32,0,0,1,3.26-8.05c32.67-61.23,278.67-79.86,262-93.7s-69.66,5.7-66-13.31c2.66-13.85,145.33-14.91,109.33-49s-233.34,53.24-287.34.53C10.59,31.49,95,10.87,167.45,0h359.6C379.72,21.73,364.46,49.22,432.39,63.5Z"/><path class="cls-4" d="M144,43.73a2.21,2.21,0,0,0,2-2c.07-.83.62-4.48.62-4.48s.48,3.66.62,4.48a2.2,2.2,0,0,0,2,2l4.47.62-4.47.63a2.1,2.1,0,0,0-2,2c-.11.82-.63,4.47-.63,4.47S146,47.77,146,47a2.16,2.16,0,0,0-2-2c-.83-.09-4.48-.62-4.48-.62S143.15,43.83,144,43.73Z"/><path class="cls-4" d="M383.29,196.42a2.41,2.41,0,0,0,2.13-2.12c.07-.89.66-4.8.66-4.8s.51,3.92.67,4.8a2.35,2.35,0,0,0,2.11,2.12l4.8.66-4.8.67a2.28,2.28,0,0,0-2.11,2.12c-.12.88-.67,4.8-.67,4.8s-.58-3.92-.67-4.8a2.32,2.32,0,0,0-2.12-2.12c-.88-.1-4.79-.67-4.79-.67S382.41,196.52,383.29,196.42Z"/><path class="cls-4" d="M49.35,197.44a2.49,2.49,0,0,0,2.2-2.19c.07-.92.69-5,.69-5s.52,4.06.69,5a2.44,2.44,0,0,0,2.19,2.19l5,.69-5,.69A2.35,2.35,0,0,0,52.93,201c-.13.91-.69,5-.69,5s-.6-4-.7-5a2.39,2.39,0,0,0-2.19-2.19c-.91-.1-5-.69-5-.69S48.44,197.55,49.35,197.44Z"/><path class="cls-4" d="M527.85,89.44a2.49,2.49,0,0,0,2.2-2.19c.07-.92.69-5,.69-5s.52,4.06.69,5a2.44,2.44,0,0,0,2.19,2.19l5,.69-5,.69A2.35,2.35,0,0,0,531.43,93c-.13.91-.69,5-.69,5s-.6-4-.7-5a2.39,2.39,0,0,0-2.19-2.19c-.91-.1-5-.69-5-.69S526.94,89.55,527.85,89.44Z"/><path class="cls-4" d="M310.05,28.85a1.37,1.37,0,0,0,1.22-1.21c0-.51.38-2.75.38-2.75s.29,2.25.38,2.75a1.36,1.36,0,0,0,1.21,1.21l2.75.38s-2.24.32-2.75.38A1.31,1.31,0,0,0,312,30.83l-.38,2.75s-.33-2.24-.38-2.75a1.35,1.35,0,0,0-1.22-1.22c-.5-.05-2.74-.38-2.74-.38Z"/><circle class="cls-5" cx="81.05" cy="134.11" r="4.5"/><circle class="cls-5" cx="465.06" cy="160.61" r="4.5"/><path class="cls-5" d="M152.59,178.11a2,2,0,1,0,2-2A2,2,0,0,0,152.59,178.11Z"/><path class="cls-5" d="M459.09,64.36a1.72,1.72,0,1,0,1.71-1.71A1.72,1.72,0,0,0,459.09,64.36Z"/><path class="cls-6" d="M567.05,134.36c-54,3.95-118,34.8-201,34.8-76.75,0-84.92-21.36-155.14-37.18C127.31,113.15,93.34,143.06,0,94v99.5H567.05Z"/><path class="cls-7" d="M51.05,155.87c-37.5,41.48-23.5,3.14,4.5-23.22a132.88,132.88,0,0,0,12.16-13,210.05,210.05,0,0,0,23.34,3.57A179.19,179.19,0,0,0,51.05,155.87Z"/><path class="cls-7" d="M236.25,138.62c-10.46,29,28.76,52.93,148.81,33.68,48.88-7.84,86.43,4.34,110.11,21.22H37.6c23.9-29.84,71-51.76,118-68.52a292.78,292.78,0,0,1,55.31,7C220.39,134.12,228.72,136.35,236.25,138.62Z"/><path class="cls-8" d="M567.05,181.85c-63.83-16.65-122.86,6.29-205.9,6.29-76.75,0-99.61-12.66-169.83-12.66-68.19,0-106.15,21.36-191.32-1.55v53.59H567.05Z"/><path class="cls-9" d="M47.27,183c54.81,5.93,89.9-7.54,144-7.54,70.22,0,93.08,12.66,169.83,12.66,40.1,0,74.6-5.35,106.75-9,31.11,11.75,50.18,32.39,55,48.39H21.79a64.75,64.75,0,0,1,3.26-12.08C29.26,203.61,37,192.85,47.27,183Z"/><path class="cls-10" d="M567.05,204.74c-72,11.87-100-9.49-183-9.49-76.75,0-133.9,15.82-215.55,15.82-68.19,0-99.62-17.4-168.46-10.28v26.73H567.05Z"/><path class="cls-11" d="M33.47,199.09c47.65.21,78.88,12,135,12,81.65,0,138.8-15.82,215.55-15.82,58,0,89.18,10.43,127.24,12.66,5.87,6.71,9.79,13.5,11.61,19.61H21.79a64.75,64.75,0,0,1,3.26-12.08A72.25,72.25,0,0,1,33.47,199.09Z"/><path class="cls-12" d="M460.86,84.61a2.2,2.2,0,1,0,2.19-2.19A2.2,2.2,0,0,0,460.86,84.61Z"/><path class="cls-12" d="M519.86,163.61a2.2,2.2,0,1,0,2.19-2.19A2.19,2.19,0,0,0,519.86,163.61Z"/><path class="cls-12" d="M28.86,37.11a2.2,2.2,0,1,0,2.19-2.19A2.2,2.2,0,0,0,28.86,37.11Z"/><path class="cls-12" d="M206.86,3.61a2.2,2.2,0,1,0,2.19-2.19A2.19,2.19,0,0,0,206.86,3.61Z"/><path class="cls-12" d="M269,87.66a2.19,2.19,0,1,0,2.19-2.19A2.19,2.19,0,0,0,269,87.66Z"/><path class="cls-12" d="M54,109.21A2.19,2.19,0,1,0,56.19,107,2.19,2.19,0,0,0,54,109.21Z"/><path class="cls-12" d="M357.41,10.36a1.24,1.24,0,1,0,1.23-1.23A1.23,1.23,0,0,0,357.41,10.36Z"/><path class="cls-12" d="M250.66,142.57a1.24,1.24,0,1,0,1.23-1.23A1.23,1.23,0,0,0,250.66,142.57Z"/><path class="cls-13" d="M268.11,163.1a1.24,1.24,0,1,0,1.23-1.23A1.23,1.23,0,0,0,268.11,163.1Z"/><path class="cls-12" d="M145.57,212.87a1.24,1.24,0,1,0,1.24-1.24A1.24,1.24,0,0,0,145.57,212.87Z"/><path class="cls-14" d="M76.15,96a1.24,1.24,0,1,0,1.24-1.24A1.24,1.24,0,0,0,76.15,96Z"/><path class="cls-12" d="M336.37,99a1.23,1.23,0,1,0,1.23-1.23A1.23,1.23,0,0,0,336.37,99Z"/><path class="cls-12" d="M335.47,137.18a.85.85,0,1,0,.85-.84A.85.85,0,0,0,335.47,137.18Z"/><path class="cls-12" d="M407.61,91.25a.85.85,0,0,0,.85.85.85.85,0,0,0,0-1.7A.85.85,0,0,0,407.61,91.25Z"/><path class="cls-12" d="M412.23,123.07a.85.85,0,1,0,.85-.85A.85.85,0,0,0,412.23,123.07Z"/><path class="cls-12" d="M381.44,117.94a.85.85,0,1,0,.84-.85A.85.85,0,0,0,381.44,117.94Z"/><circle class="cls-12" cx="381.22" cy="156.91" r="0.85"/><path class="cls-12" d="M350.1,143.05a.85.85,0,1,0,.85-.84A.85.85,0,0,0,350.1,143.05Z"/><path class="cls-12" d="M391.3,136a1.27,1.27,0,1,0,1.27-1.27A1.27,1.27,0,0,0,391.3,136Z"/><path class="cls-12" d="M369.78,139.34a1.27,1.27,0,1,0,1.27-1.27A1.27,1.27,0,0,0,369.78,139.34Z"/><path class="cls-12" d="M363.78,153.34a1.27,1.27,0,1,0,1.27-1.27A1.27,1.27,0,0,0,363.78,153.34Z"/><path class="cls-4" d="M316.05,148.11a1.27,1.27,0,1,0,1.28-1.27A1.27,1.27,0,0,0,316.05,148.11Z"/><path class="cls-4" d="M449.3,101.72a1.27,1.27,0,1,0,1.27-1.27A1.27,1.27,0,0,0,449.3,101.72Z"/><path class="cls-12" d="M421.78,119.11a1.27,1.27,0,1,0,1.27-1.27A1.27,1.27,0,0,0,421.78,119.11Z"/><path class="cls-14" d="M382.15,99.61a1.91,1.91,0,1,0,1.9-1.9A1.9,1.9,0,0,0,382.15,99.61Z"/><path class="cls-12" d="M348.07,162.22a1.27,1.27,0,1,0,1.27-1.27A1.27,1.27,0,0,0,348.07,162.22Z"/><path class="cls-12" d="M320.55,179.61a1.27,1.27,0,1,0,1.28-1.27A1.27,1.27,0,0,0,320.55,179.61Z"/><path class="cls-12" d="M272.83,174.38a1.27,1.27,0,1,0,1.27-1.26A1.27,1.27,0,0,0,272.83,174.38Z"/><path class="cls-12" d="M327.8,192.45a1.27,1.27,0,1,0,1.27-1.28A1.27,1.27,0,0,0,327.8,192.45Z"/><path class="cls-12" d="M300.28,209.84a1.27,1.27,0,1,0,1.27-1.27A1.27,1.27,0,0,0,300.28,209.84Z"/><path class="cls-12" d="M252.55,204.61a1.27,1.27,0,1,0,1.28-1.27A1.27,1.27,0,0,0,252.55,204.61Z"/><path class="cls-12" d="M226.8,201a1.27,1.27,0,1,0,1.27-1.28A1.27,1.27,0,0,0,226.8,201Z"/><path class="cls-14" d="M199.28,218.34a1.27,1.27,0,1,0,1.27-1.27A1.27,1.27,0,0,0,199.28,218.34Z"/><path class="cls-12" d="M254.3,218.45a1.27,1.27,0,1,0,1.27-1.28A1.27,1.27,0,0,0,254.3,218.45Z"/><path class="cls-12" d="M431.8,82.45a1.27,1.27,0,1,0,1.27-1.27A1.27,1.27,0,0,0,431.8,82.45Z"/><path class="cls-12" d="M404.28,99.84a1.27,1.27,0,1,0,1.27-1.27A1.27,1.27,0,0,0,404.28,99.84Z"/><path class="cls-12" d="M356.55,94.61a1.27,1.27,0,1,0,1.28-1.27A1.27,1.27,0,0,0,356.55,94.61Z"/><path class="cls-12" d="M354.3,59a1.27,1.27,0,1,0,1.27-1.27A1.27,1.27,0,0,0,354.3,59Z"/><path class="cls-12" d="M326.78,76.34a1.27,1.27,0,1,0,1.27-1.27A1.27,1.27,0,0,0,326.78,76.34Z"/><path class="cls-12" d="M279.05,71.11a1.27,1.27,0,1,0,1.28-1.27A1.27,1.27,0,0,0,279.05,71.11Z"/><path class="cls-12" d="M199.05,95.61a1.27,1.27,0,1,0,1.28-1.27A1.27,1.27,0,0,0,199.05,95.61Z"/><path class="cls-14" d="M486.51,50.61a1.27,1.27,0,1,0,1.27-1.27A1.27,1.27,0,0,0,486.51,50.61Z"/><path class="cls-12" d="M419.45,66a1.27,1.27,0,1,0,1.27-1.27A1.27,1.27,0,0,0,419.45,66Z"/><path class="cls-12" d="M419.78,21.21a1.27,1.27,0,1,0,1.27-1.27A1.27,1.27,0,0,0,419.78,21.21Z"/><path class="cls-12" d="M372.55,55.11a1.27,1.27,0,1,0,1.28-1.27A1.27,1.27,0,0,0,372.55,55.11Z"/><path class="cls-12" d="M380.45,33.22a1.27,1.27,0,1,0,1.27-1.28A1.27,1.27,0,0,0,380.45,33.22Z"/><path class="cls-12" d="M333.72,30.61A1.27,1.27,0,1,0,335,29.34,1.27,1.27,0,0,0,333.72,30.61Z"/><path class="cls-12" d="M317.8,43a1.27,1.27,0,1,0,1.27-1.27A1.27,1.27,0,0,0,317.8,43Z"/><path class="cls-12" d="M290.28,60.34a1.27,1.27,0,1,0,1.27-1.27A1.27,1.27,0,0,0,290.28,60.34Z"/><path class="cls-13" d="M242.55,55.11a1.27,1.27,0,1,0,1.28-1.27A1.27,1.27,0,0,0,242.55,55.11Z"/><path class="cls-12" d="M225.78,93.84a1.27,1.27,0,1,0,1.27-1.27A1.27,1.27,0,0,0,225.78,93.84Z"/><path class="cls-12" d="M237,83.07a1.27,1.27,0,1,0,1.27-1.27A1.27,1.27,0,0,0,237,83.07Z"/><path class="cls-12" d="M189.28,77.84a1.27,1.27,0,1,0,1.27-1.27A1.27,1.27,0,0,0,189.28,77.84Z"/><path class="cls-12" d="M148.12,101.88a1.27,1.27,0,1,0,1.27-1.27A1.27,1.27,0,0,0,148.12,101.88Z"/><path class="cls-12" d="M164,105.11a1.27,1.27,0,1,0,2.54,0,1.27,1.27,0,1,0-2.54,0Z"/><path class="cls-12" d="M92.45,92a1.27,1.27,0,1,0,1.27-1.27A1.27,1.27,0,0,0,92.45,92Z"/><path class="cls-12" d="M84.45,21.22a1.27,1.27,0,1,0,1.27-1.28A1.27,1.27,0,0,0,84.45,21.22Z"/><path class="cls-12" d="M123.85,10.61a1.27,1.27,0,1,0,1.27-1.27A1.27,1.27,0,0,0,123.85,10.61Z"/><path class="cls-12" d="M322.38,138.43a.85.85,0,1,0,.85-.84A.85.85,0,0,0,322.38,138.43Z"/><path class="cls-12" d="M386.21,72.27a.85.85,0,1,0,.84-.85A.85.85,0,0,0,386.21,72.27Z"/><path class="cls-12" d="M400.83,78.14a.85.85,0,1,0,.85-.85A.85.85,0,0,0,400.83,78.14Z"/><path class="cls-12" d="M373.12,73.52a.85.85,0,1,0,.85-.85A.85.85,0,0,0,373.12,73.52Z"/><path class="cls-12" d="M321.21,58.77a.85.85,0,1,0,.84-.85A.85.85,0,0,0,321.21,58.77Z"/><path class="cls-12" d="M335.83,64.64a.85.85,0,1,0,.85-.85A.85.85,0,0,0,335.83,64.64Z"/><path class="cls-12" d="M308.12,60a.85.85,0,1,0,.85-.85A.85.85,0,0,0,308.12,60Z"/><path class="cls-12" d="M89.21,78.27a.85.85,0,1,0,.84-.85A.85.85,0,0,0,89.21,78.27Z"/><path class="cls-12" d="M103.83,84.14a.85.85,0,1,0,.85-.85A.85.85,0,0,0,103.83,84.14Z"/><path class="cls-4" d="M76.12,79.52a.85.85,0,1,0,.85-.85A.85.85,0,0,0,76.12,79.52Z"/><path class="cls-12" d="M304.21,77.77a.85.85,0,1,0,.84-.85A.85.85,0,0,0,304.21,77.77Z"/><path class="cls-12" d="M318.83,83.64a.85.85,0,1,0,.85-.85A.85.85,0,0,0,318.83,83.64Z"/><path class="cls-12" d="M291.12,79a.85.85,0,1,0,.85-.85A.85.85,0,0,0,291.12,79Z"/><path class="cls-12" d="M331.05,117.11a.85.85,0,1,0,.85-.84A.85.85,0,0,0,331.05,117.11Z"/><path class="cls-12" d="M345.68,123a.85.85,0,0,0,.85.85.84.84,0,0,0,.84-.85.83.83,0,0,0-.84-.84A.84.84,0,0,0,345.68,123Z"/><path class="cls-12" d="M318,118.36a.84.84,0,0,0,.84.85.85.85,0,1,0,0-1.69A.84.84,0,0,0,318,118.36Z"/><path class="cls-12" d="M282.21,182.77a.85.85,0,1,0,.84-.85A.85.85,0,0,0,282.21,182.77Z"/><path class="cls-12" d="M296.83,188.63a.85.85,0,1,0,.85-.84A.85.85,0,0,0,296.83,188.63Z"/><path class="cls-12" d="M269.12,184a.85.85,0,1,0,.85-.85A.85.85,0,0,0,269.12,184Z"/><path class="cls-12" d="M282.71,146.27a.85.85,0,1,0,.84-.85A.85.85,0,0,0,282.71,146.27Z"/><path class="cls-12" d="M297.33,152.14a.85.85,0,1,0,.85-.85A.85.85,0,0,0,297.33,152.14Z"/><path class="cls-12" d="M269.62,147.52a.85.85,0,1,0,.85-.85A.85.85,0,0,0,269.62,147.52Z"/><path class="cls-12" d="M228.21,179.27a.85.85,0,1,0,.84-.85A.85.85,0,0,0,228.21,179.27Z"/><path class="cls-12" d="M242.83,185.13a.85.85,0,1,0,.85-.84A.85.85,0,0,0,242.83,185.13Z"/><path class="cls-12" d="M215.12,180.52a.85.85,0,1,0,.85-.85A.85.85,0,0,0,215.12,180.52Z"/><path class="cls-12" d="M183.86,186.61a.85.85,0,0,0,.85.85.85.85,0,1,0-.85-.85Z"/><path class="cls-12" d="M198.49,192.48a.84.84,0,0,0,.84.85.85.85,0,1,0,0-1.69A.84.84,0,0,0,198.49,192.48Z"/><path class="cls-12" d="M170.77,187.86a.85.85,0,1,0,.85-.84A.85.85,0,0,0,170.77,187.86Z"/><path class="cls-12" d="M293.13,134.91a.85.85,0,1,0,.85-.85A.85.85,0,0,0,293.13,134.91Z"/><path class="cls-12" d="M216.69,160a.85.85,0,0,0,1.7,0,.85.85,0,0,0-1.7,0Z"/><path class="cls-12" d="M343.94,181.54a.85.85,0,1,0,.85-.84A.85.85,0,0,0,343.94,181.54Z"/><path class="cls-12" d="M263.88,196.94a.85.85,0,1,0,.84-.85A.85.85,0,0,0,263.88,196.94Z"/><path class="cls-12" d="M280.81,219.52a.85.85,0,1,0,.85-.85A.85.85,0,0,0,280.81,219.52Z"/><path class="cls-12" d="M221.28,210.29a.85.85,0,0,0,.85.84.85.85,0,0,0,0-1.69A.85.85,0,0,0,221.28,210.29Z"/><path class="cls-12" d="M435.8,10.07a.85.85,0,0,0,1.7,0,.85.85,0,0,0-1.7,0Z"/><path class="cls-12" d="M232.06,43.52a.85.85,0,1,0,.85-.85A.85.85,0,0,0,232.06,43.52Z"/><path class="cls-14" d="M89.39,51.61a.85.85,0,1,0,.84-.84A.85.85,0,0,0,89.39,51.61Z"/><path class="cls-14" d="M66,61.61a.85.85,0,1,0,.84-.84A.85.85,0,0,0,66,61.61Z"/><path class="cls-14" d="M395,31a.85.85,0,1,0,.84-.85A.85.85,0,0,0,395,31Z"/><path class="cls-12" d="M273.21,6.82a.85.85,0,1,0,.84-.85A.85.85,0,0,0,273.21,6.82Z"/><path class="cls-12" d="M181.21,4a.85.85,0,1,0,.84-.85A.85.85,0,0,0,181.21,4Z"/><path class="cls-12" d="M13.86,222.61a.85.85,0,0,0,.85.85.85.85,0,1,0-.85-.85Z"/><path class="cls-12" d="M48.71,223.77a.85.85,0,1,0,.84-.85A.85.85,0,0,0,48.71,223.77Z"/><path class="cls-12" d="M113,36.34a.85.85,0,0,0,.85.84.85.85,0,0,0,0-1.69A.85.85,0,0,0,113,36.34Z"/><path class="cls-12" d="M45.76,9.56a.85.85,0,0,0,.85.85.85.85,0,0,0,0-1.7A.85.85,0,0,0,45.76,9.56Z"/><path class="cls-12" d="M23.18,89.68a.85.85,0,1,0,.85-.85A.85.85,0,0,0,23.18,89.68Z"/><path class="cls-12" d="M178.17,103.54a.85.85,0,0,0,.85.84.85.85,0,0,0,0-1.69A.85.85,0,0,0,178.17,103.54Z"/><path class="cls-12" d="M359.34,83.52a.84.84,0,0,0,.84.85.85.85,0,1,0,0-1.7A.84.84,0,0,0,359.34,83.52Z"/><path class="cls-12" d="M419.38,50.67a.85.85,0,1,0,.85-.84A.85.85,0,0,0,419.38,50.67Z"/><path class="cls-12" d="M468.21,27.77a.84.84,0,0,0,.84.84.85.85,0,1,0-.84-.84Z"/><path class="cls-12" d="M457.72,21.28a.85.85,0,0,0,.85.85.85.85,0,0,0,0-1.7A.85.85,0,0,0,457.72,21.28Z"/><path class="cls-12" d="M473.54,58a.85.85,0,0,0,1.7,0,.85.85,0,0,0-1.7,0Z"/><path class="cls-12" d="M392.22,90.3a.5.5,0,0,0,.5.49.5.5,0,1,0,0-1A.5.5,0,0,0,392.22,90.3Z"/><path class="cls-12" d="M385.56,64.55a.5.5,0,1,0,1,0,.5.5,0,1,0-1,0Z"/><path class="cls-12" d="M348.39,75.11a.5.5,0,1,0,.49-.49A.49.49,0,0,0,348.39,75.11Z"/><path class="cls-12" d="M346.22,94.12a.5.5,0,0,0,.5.49.5.5,0,1,0,0-1A.5.5,0,0,0,346.22,94.12Z"/><path class="cls-12" d="M349.22,109.45a.5.5,0,0,0,.5.5.5.5,0,0,0,.5-.5.5.5,0,0,0-.5-.5A.51.51,0,0,0,349.22,109.45Z"/><path class="cls-12" d="M380.39,90.11a.5.5,0,1,0,.49-.49A.49.49,0,0,0,380.39,90.11Z"/><path class="cls-12" d="M443.56,118.47a.5.5,0,1,0,.5-.5A.49.49,0,0,0,443.56,118.47Z"/><path class="cls-12" d="M436.89,92.72a.51.51,0,0,0,.5.5.5.5,0,0,0,.5-.5.5.5,0,0,0-.5-.5A.5.5,0,0,0,436.89,92.72Z"/><path class="cls-12" d="M399.72,103.28a.5.5,0,0,0,.5.5.5.5,0,0,0,.5-.5.5.5,0,0,0-.5-.5A.51.51,0,0,0,399.72,103.28Z"/><path class="cls-12" d="M431.72,118.28a.5.5,0,0,0,.5.5.5.5,0,0,0,.5-.5.5.5,0,0,0-.5-.5A.51.51,0,0,0,431.72,118.28Z"/><path class="cls-12" d="M388.56,43.63a.5.5,0,1,0,.5-.5A.49.49,0,0,0,388.56,43.63Z"/><path class="cls-12" d="M381.89,17.88a.5.5,0,0,0,.5.5.5.5,0,1,0-.5-.5Z"/><path class="cls-12" d="M344.72,28.44a.5.5,0,0,0,.5.5.5.5,0,1,0-.5-.5Z"/><path class="cls-12" d="M376.72,43.44a.5.5,0,0,0,.5.5.5.5,0,1,0-.5-.5Z"/><path class="cls-12" d="M266.39,70.13a.5.5,0,1,0,.5-.5A.5.5,0,0,0,266.39,70.13Z"/><path class="cls-12" d="M259.72,44.39a.5.5,0,0,0,.5.49.5.5,0,1,0,0-1A.5.5,0,0,0,259.72,44.39Z"/><path class="cls-12" d="M222.55,55a.5.5,0,0,0,.5.49.5.5,0,1,0,0-1A.5.5,0,0,0,222.55,55Z"/><path class="cls-12" d="M254.55,70a.5.5,0,0,0,.5.49.5.5,0,1,0,0-1A.5.5,0,0,0,254.55,70Z"/><path class="cls-12" d="M309.9,139.13a.5.5,0,1,0,.49-.49A.49.49,0,0,0,309.9,139.13Z"/><path class="cls-12" d="M303.23,113.39a.5.5,0,1,0,.5-.5A.49.49,0,0,0,303.23,113.39Z"/><path class="cls-12" d="M266.06,124a.5.5,0,1,0,.49-.5A.49.49,0,0,0,266.06,124Z"/><path class="cls-12" d="M298.06,139a.5.5,0,1,0,.49-.5A.49.49,0,0,0,298.06,139Z"/><path class="cls-12" d="M175.4,89.3a.5.5,0,1,0,.49-.49A.49.49,0,0,0,175.4,89.3Z"/><circle class="cls-12" cx="169.23" cy="63.56" r="0.5"/><path class="cls-12" d="M131.56,74.12a.5.5,0,1,0,.49-.5A.49.49,0,0,0,131.56,74.12Z"/><path class="cls-12" d="M163.56,89.12a.5.5,0,1,0,.49-.5A.49.49,0,0,0,163.56,89.12Z"/><path class="cls-12" d="M78.4,36.3a.5.5,0,1,0,.49-.49A.49.49,0,0,0,78.4,36.3Z"/><circle class="cls-12" cx="72.23" cy="10.56" r="0.5"/><path class="cls-12" d="M34.56,21.12a.5.5,0,1,0,.49-.5A.49.49,0,0,0,34.56,21.12Z"/><path class="cls-12" d="M66.56,36.12a.5.5,0,1,0,.49-.5A.49.49,0,0,0,66.56,36.12Z"/><circle class="cls-12" cx="283.73" cy="199.55" r="0.5"/><path class="cls-12" d="M246.06,210.12a.5.5,0,1,0,.49-.5A.49.49,0,0,0,246.06,210.12Z"/><path class="cls-12" d="M429.54,39a.85.85,0,0,0,1.7,0,.85.85,0,0,0-1.7,0Z"/><path class="cls-12" d="M490.72,2.89a.85.85,0,1,0,.85-.85A.85.85,0,0,0,490.72,2.89Z"/><path class="cls-12" d="M398.85,165.12a.85.85,0,1,0,.85-.85A.85.85,0,0,0,398.85,165.12Z"/><path class="cls-12" d="M422.94,161.56a.85.85,0,1,0,.85-.85A.85.85,0,0,0,422.94,161.56Z"/><path class="cls-12" d="M285.46,51.22a.85.85,0,1,0,.85-.85A.85.85,0,0,0,285.46,51.22Z"/><path class="cls-12" d="M253.61,85.06a.85.85,0,1,0,.85-.85A.85.85,0,0,0,253.61,85.06Z"/><path class="cls-12" d="M223.33,71.2a.85.85,0,0,0,1.7,0,.85.85,0,0,0-1.7,0Z"/><path class="cls-12" d="M217.17,109.69a.85.85,0,1,0,.85-.84A.85.85,0,0,0,217.17,109.69Z"/><path class="cls-12" d="M296.18,89.71a.85.85,0,1,0,.84-.85A.85.85,0,0,0,296.18,89.71Z"/><path class="cls-12" d="M397.35,7a.85.85,0,1,0,.84-.85A.85.85,0,0,0,397.35,7Z"/><path class="cls-12" d="M365.49,63.5a.85.85,0,1,0,.85-.84A.85.85,0,0,0,365.49,63.5Z"/><path class="cls-12" d="M335.21,49.65a.85.85,0,0,0,1.7,0,.85.85,0,0,0-1.7,0Z"/><path class="cls-12" d="M354.69,31.28a.85.85,0,0,0,1.7,0,.85.85,0,1,0-1.7,0Z"/><path class="cls-12" d="M400,22.61a.84.84,0,0,0,.84.85.85.85,0,0,0,0-1.7A.84.84,0,0,0,400,22.61Z"/><path class="cls-12" d="M404.21,38.43a.84.84,0,0,0,.84.85.85.85,0,1,0,0-1.7A.84.84,0,0,0,404.21,38.43Z"/><path class="cls-12" d="M325.54,3.1a.85.85,0,1,0,.85-.85A.85.85,0,0,0,325.54,3.1Z"/><path class="cls-12" d="M100.87,8.43a.85.85,0,1,0,.85-.85A.85.85,0,0,0,100.87,8.43Z"/><path class="cls-12" d="M329.06,88.14a.84.84,0,0,0,.84.85.85.85,0,0,0,0-1.7A.84.84,0,0,0,329.06,88.14Z"/><path class="cls-12" d="M408.06,68.16a.85.85,0,1,0,.85-.85A.85.85,0,0,0,408.06,68.16Z"/><path class="cls-12" d="M493.83,83a.85.85,0,1,0,.85-.85A.85.85,0,0,0,493.83,83Z"/><path class="cls-12" d="M462,116.88a.85.85,0,1,0,.85-.85A.85.85,0,0,0,462,116.88Z"/><path class="cls-12" d="M431.7,103a.85.85,0,1,0,1.69,0,.85.85,0,0,0-1.69,0Z"/><path class="cls-12" d="M425.54,141.51a.85.85,0,0,0,.85.85.85.85,0,1,0-.85-.85Z"/><path class="cls-14" d="M504.54,121.53a.85.85,0,1,0,.85-.85A.85.85,0,0,0,504.54,121.53Z"/><path class="cls-4" d="M448.67,172.34a.85.85,0,1,0,.85-.85A.85.85,0,0,0,448.67,172.34Z"/><path class="cls-12" d="M456.21,168.79a.85.85,0,1,0,.84-.84A.85.85,0,0,0,456.21,168.79Z"/><path class="cls-12" d="M465.39,174.28a.85.85,0,1,0,.85-.85A.85.85,0,0,0,465.39,174.28Z"/><path class="cls-12" d="M525.39,203a.85.85,0,1,0,.85-.85A.85.85,0,0,0,525.39,203Z"/><path class="cls-12" d="M521.72,219.28a.85.85,0,1,0,.85-.85A.85.85,0,0,0,521.72,219.28Z"/><path class="cls-12" d="M549.05,214.61a.85.85,0,1,0,.85-.84A.85.85,0,0,0,549.05,214.61Z"/><path class="cls-12" d="M473.39,168.28a.85.85,0,1,0,.85-.85A.85.85,0,0,0,473.39,168.28Z"/><path class="cls-12" d="M485.72,172a.85.85,0,1,0,.85-.85A.85.85,0,0,0,485.72,172Z"/><path class="cls-12" d="M490.87,179a.85.85,0,1,0,.85-.85A.85.85,0,0,0,490.87,179Z"/><path class="cls-12" d="M492.87,192.28a.85.85,0,1,0,.85-.85A.85.85,0,0,0,492.87,192.28Z"/><path class="cls-12" d="M504.36,196a.85.85,0,0,0,.85.84.85.85,0,0,0,0-1.69A.85.85,0,0,0,504.36,196Z"/><path class="cls-12" d="M305.48,205.7a.84.84,0,0,0,.85.84.83.83,0,0,0,.84-.84.84.84,0,0,0-.84-.85A.85.85,0,0,0,305.48,205.7Z"/><path class="cls-12" d="M171,207a.85.85,0,0,0,1.69,0,.85.85,0,1,0-1.69,0Z"/><path class="cls-12" d="M54.52,125.12a.85.85,0,1,0,1.69,0,.85.85,0,0,0-1.69,0Z"/><path class="cls-12" d="M547.65,176.45a.85.85,0,1,0,.85-.85A.85.85,0,0,0,547.65,176.45Z"/><path class="cls-12" d="M535.85,46.09a.84.84,0,0,0,.85.84.83.83,0,0,0,.84-.84.84.84,0,0,0-.84-.85A.85.85,0,0,0,535.85,46.09Z"/><path class="cls-12" d="M12.88,42a.85.85,0,1,0,.85-.85A.85.85,0,0,0,12.88,42Z"/><path class="cls-12" d="M178.2,45.57a.85.85,0,1,0,.85-.84A.85.85,0,0,0,178.2,45.57Z"/><path class="cls-4" d="M146.35,79.42a.85.85,0,0,0,.85.84.85.85,0,0,0,0-1.69A.85.85,0,0,0,146.35,79.42Z"/><path class="cls-12" d="M552.21,96a.85.85,0,1,0,.84-.85A.85.85,0,0,0,552.21,96Z"/><path class="cls-12" d="M480.9,189.08a.85.85,0,1,0,.85-.84A.85.85,0,0,0,480.9,189.08Z"/><path class="cls-12" d="M442.87,157.28a.85.85,0,1,0,.85-.85A.85.85,0,0,0,442.87,157.28Z"/><path class="cls-12" d="M504.36,212a.85.85,0,0,0,.85.84.85.85,0,0,0,0-1.69A.85.85,0,0,0,504.36,212Z"/><path class="cls-12" d="M550.21,5.63a.85.85,0,0,0,1.69,0,.85.85,0,1,0-1.69,0Z"/><path class="cls-12" d="M144.21,56.27a.85.85,0,1,0,.84-.85A.85.85,0,0,0,144.21,56.27Z"/><path class="cls-12" d="M79.71,5.13a.85.85,0,0,0,1.69,0,.85.85,0,1,0-1.69,0Z"/><path class="cls-12" d="M116.07,65.56a.85.85,0,0,0,1.7,0,.85.85,0,0,0-1.7,0Z"/><path class="cls-12" d="M124.87,89.61a.85.85,0,1,0,.85-.84A.85.85,0,0,0,124.87,89.61Z"/><path class="cls-12" d="M188.91,84.07a.85.85,0,1,0,.85-.85A.85.85,0,0,0,188.91,84.07Z"/><path class="cls-12" d="M391.67,200a.85.85,0,1,0,.85-.85A.85.85,0,0,0,391.67,200Z"/><path class="cls-12" d="M415.24,134.36a.85.85,0,1,0,.85-.85A.85.85,0,0,0,415.24,134.36Z"/><path class="cls-12" d="M482,99.4a.85.85,0,0,0,1.7,0,.85.85,0,0,0-1.7,0Z"/><path class="cls-14" d="M239.21,210.29a.85.85,0,1,0,.85-.85A.85.85,0,0,0,239.21,210.29Z"/><path class="cls-12" d="M310.55,185.14a.85.85,0,1,0,.84-.85A.85.85,0,0,0,310.55,185.14Z"/><path class="cls-12" d="M164,166.79a.85.85,0,0,0,.85.85.85.85,0,1,0-.85-.85Z"/><path class="cls-12" d="M59.1,92.31a.85.85,0,1,0,.85-.85A.85.85,0,0,0,59.1,92.31Z"/><path class="cls-12" d="M143.3,124.61a.85.85,0,1,0,.85-.85A.85.85,0,0,0,143.3,124.61Z"/><path class="cls-12" d="M70.88,51.73a.84.84,0,0,0,.84.85.85.85,0,0,0,0-1.7A.84.84,0,0,0,70.88,51.73Z"/><path class="cls-12" d="M14.05,138.11a.85.85,0,1,0,.85-.84A.85.85,0,0,0,14.05,138.11Z"/><path class="cls-12" d="M81,157.37a.85.85,0,1,0,.84-.85A.85.85,0,0,0,81,157.37Z"/><path class="cls-12" d="M124.71,190.77a.85.85,0,1,0,.84-.85A.85.85,0,0,0,124.71,190.77Z"/><path class="cls-12" d="M124.36,152.36a.85.85,0,0,0,.85.85.85.85,0,0,0,0-1.7A.86.86,0,0,0,124.36,152.36Z"/><path class="cls-12" d="M259.86,111.11a.85.85,0,0,0,.85.85.85.85,0,0,0,0-1.7A.86.86,0,0,0,259.86,111.11Z"/><path class="cls-12" d="M203.86,146.11a.85.85,0,0,0,.85.85.85.85,0,0,0,0-1.7A.86.86,0,0,0,203.86,146.11Z"/><path class="cls-12" d="M433.21,201.77a.85.85,0,1,0,.84-.85A.85.85,0,0,0,433.21,201.77Z"/><path class="cls-12" d="M11.71,174.27a.85.85,0,1,0,.84-.85A.85.85,0,0,0,11.71,174.27Z"/><path class="cls-12" d="M142.21,4a.85.85,0,1,0,.85-.85A.85.85,0,0,0,142.21,4Z"/><path class="cls-12" d="M463.13,134.87a1.24,1.24,0,1,0,1.24-1.23A1.24,1.24,0,0,0,463.13,134.87Z"/><path class="cls-12" d="M405.14,171.31a1.23,1.23,0,1,0,1.23-1.23A1.23,1.23,0,0,0,405.14,171.31Z"/><path class="cls-12" d="M339.86,208.78a2.19,2.19,0,1,0,2.19-2.19A2.19,2.19,0,0,0,339.86,208.78Z"/><circle class="cls-15" cx="182.39" cy="63.95" r="0.96"/><circle class="cls-15" cx="441.05" cy="108.32" r="0.96"/><circle class="cls-15" cx="245.05" cy="156.66" r="0.96"/><path class="cls-15" d="M228.34,164.28a2.55,2.55,0,1,0,2.55-2.55A2.55,2.55,0,0,0,228.34,164.28Z"/><circle class="cls-15" cx="53.39" cy="85.28" r="0.96"/><circle class="cls-12" cx="52.05" cy="55.61" r="2.19"/><circle class="cls-12" cx="34.05" cy="173.61" r="2.19"/><circle class="cls-12" cx="192.39" cy="208.28" r="2.19"/><path class="cls-12" d="M309.24,169.77a2.19,2.19,0,1,0,2.19-2.19A2.19,2.19,0,0,0,309.24,169.77Z"/><path class="cls-16" d="M478,95.91a14.11,14.11,0,1,0,7-18.68A14.11,14.11,0,0,0,478,95.91Z"/><path class="cls-17" d="M479.36,95.31a12.65,12.65,0,1,0,6.28-16.75A12.65,12.65,0,0,0,479.36,95.31Z"/><path class="cls-18" d="M481.77,81.93a2.8,2.8,0,0,1-.16-.46,12.67,12.67,0,0,1,4-2.91A11.77,11.77,0,0,1,487.1,78a3.24,3.24,0,0,1,.84,1.12,3.39,3.39,0,0,1-6.17,2.8Z"/><path class="cls-18" d="M496.88,93.41a1.37,1.37,0,1,1-.68,1.82A1.38,1.38,0,0,1,496.88,93.41Z"/><path class="cls-18" d="M494,90a4.28,4.28,0,1,1,5.67,2.12A4.29,4.29,0,0,1,494,90Z"/><path class="cls-18" d="M484.26,92a1.6,1.6,0,0,1-2.91,1.32A1.6,1.6,0,1,1,484.26,92Z"/><path class="cls-18" d="M484.66,101.08a2.14,2.14,0,0,1,3.89,0,2.15,2.15,0,0,1,.12,1.43A12.76,12.76,0,0,1,484.66,101.08Z"/><path class="cls-4" d="M226.85,84.61s-4.6-.26-7.14-3a33.3,33.3,0,0,0-3.73,3s4,4,9,4.62A11,11,0,0,0,226.85,84.61Z"/><path class="cls-19" d="M219.84,82.09s.42-2.9-.57-3.32-1.5,1.13-1.5,1.13-2-2.45-2.86-2.2-.08,1.49-.08,1.49-1.43-.71-2-.24-.17,1.25.23,1.76c-.86-.38-1.1.05-1.15.61-.08,1,1.76,3.22,4.45,3.68C217.24,85.16,219.48,82.81,219.84,82.09Z"/><path class="cls-19" d="M221.86,83.06s-1.63,3.4-2.63,4.13a1.09,1.09,0,0,0,1.25.73A9.42,9.42,0,0,0,223,83.75C222.8,83.17,221.86,83.06,221.86,83.06Z"/><path class="cls-4" d="M236.78,93.41s.59,4.56,3.48,6.9a33.4,33.4,0,0,1-2.7,3.94s-4.28-3.71-5.27-8.67A11.1,11.1,0,0,1,236.78,93.41Z"/><path class="cls-19" d="M239.8,100.22s2.87-.63,3.36.32-1,1.59-1,1.59,2.58,1.76,2.4,2.68-1.47.19-1.47.19.8,1.38.38,1.93-1.24.26-1.78-.1c.45.83,0,1.1-.53,1.19-.95.16-3.34-1.51-4-4.17C236.94,103,239.11,100.63,239.8,100.22Z"/><path class="cls-19" d="M238.69,98.27s-3.26,1.88-3.93,2.93A1.1,1.1,0,0,1,234,100a9.39,9.39,0,0,1,4-2.82C238.51,97.34,238.69,98.27,238.69,98.27Z"/><path class="cls-4" d="M237,93.12s-6.12,12.58-14.55,17.35a24,24,0,0,1-4.44-2.34,67,67,0,0,1,4-6.88,6.49,6.49,0,0,1-1.28-1.34c-2.08,1.59-5.32,4.3-6.85,4.72a14.87,14.87,0,0,1-3-4.24s5.83-10.3,16-15.33C229.84,87.07,237,93.12,237,93.12Z"/><path class="cls-19" d="M220.24,89.55a12.24,12.24,0,0,0,1,7.64,5,5,0,0,1-.39,1.22s-2.6-2.4-1.87-7.65A1.93,1.93,0,0,1,220.24,89.55Z"/><path class="cls-19" d="M220.05,89.62l.19-.07A11.27,11.27,0,0,0,220,92.1,12.9,12.9,0,0,1,220.05,89.62Z"/><path class="cls-20" d="M222,90.58c-1.6,1.76-.82,5.07,1.74,7.39s5.92,2.75,7.52,1,.82-5.07-1.74-7.38S223.55,88.81,222,90.58Z"/><path class="cls-19" d="M222.31,90.9c-1.48,1.63-.76,4.68,1.6,6.82s5.47,2.54,6.94.91.76-4.69-1.6-6.82S223.78,89.27,222.31,90.9Z"/><path class="cls-19" d="M232.5,100.64a12.15,12.15,0,0,1-7.69-.21,4.84,4.84,0,0,0-1.18.51s2.85,2.19,7.8,1.1A1.94,1.94,0,0,0,232.5,100.64Z"/><path class="cls-19" d="M232.39,100.68l.11,0v0Z"/><path class="cls-4" d="M229.3,95.79a1.26,1.26,0,0,0,.13,1.75,1.22,1.22,0,1,0-.13-1.75Z"/><path class="cls-4" d="M223.42,90.47a1.2,1.2,0,1,0,1.71-.09A1.2,1.2,0,0,0,223.42,90.47Z"/><path class="cls-4" d="M228.47,93.3a1.09,1.09,0,1,0,1.54-.08A1.08,1.08,0,0,0,228.47,93.3Z"/><path class="cls-4" d="M226.28,91.33a1.09,1.09,0,0,0,1.62,1.46,1.09,1.09,0,1,0-1.62-1.46Z"/><rect class="cls-21" x="223.59" y="94.29" width="4.28" height="2.76" rx="0.48" ry="0.48" transform="translate(3.33 198.83) rotate(-47.85)"/><path class="cls-22" d="M233.71,98.75l-.84,1.21s.52,1.71-.53,1.06-1.43-2.7-1.44-4.24c-.09-.93-1.42-1-1.43.36.14,1.64.38,3.56,1.74,4.89s2.8,1,3.1-.47A4.5,4.5,0,0,0,233.71,98.75Z"/><path class="cls-22" d="M221.92,88.09l-1.12,1s-1.77-.36-1,.63,2.88,1.19,4.43,1.07c.94,0,1.16,1.34-.2,1.47-1.67,0-3.63-.06-5.11-1.31s-1.36-2.72.12-3.16A4.57,4.57,0,0,1,221.92,88.09Z"/><path class="cls-23" d="M226.41,84.62c-.95,1,.59,4,3.44,6.58S235.78,95,236.74,94s-.58-4-3.43-6.59S227.37,83.56,226.41,84.62Z"/><path class="cls-19" d="M222.6,110.61s-.69,4.28-3.32,3.74-3.46-5.12-1-7.25C218.94,106.25,223.32,108.35,222.6,110.61Z"/><path class="cls-4" d="M217.87,110.8a.27.27,0,0,0,.23.08,2.77,2.77,0,0,1,3.16,1.79.32.32,0,0,0,.39.22.31.31,0,0,0,.22-.39,3.45,3.45,0,0,0-3.82-2.25.31.31,0,0,0-.28.34A.27.27,0,0,0,217.87,110.8Z"/><path class="cls-4" d="M218.32,109.51a.31.31,0,0,0,.24.08,2.77,2.77,0,0,1,3.16,1.8.32.32,0,0,0,.39.21.31.31,0,0,0,.22-.39A3.46,3.46,0,0,0,218.5,109a.32.32,0,0,0-.28.35A.3.3,0,0,0,218.32,109.51Z"/><path class="cls-19" d="M211.14,100.24s-4.18,1.12-3.38,3.69,5.43,2.93,7.31.23C215.85,103.45,213.32,99.3,211.14,100.24Z"/><path class="cls-4" d="M211.43,105a.3.3,0,0,1-.11-.23,2.79,2.79,0,0,0-2.1-3,.31.31,0,0,1-.25-.36.32.32,0,0,1,.36-.26,3.44,3.44,0,0,1,2.62,3.58.31.31,0,0,1-.31.32A.3.3,0,0,1,211.43,105Z"/><path class="cls-4" d="M212.67,104.39a.28.28,0,0,1-.11-.23,2.77,2.77,0,0,0-2.1-3,.32.32,0,0,1-.26-.37.32.32,0,0,1,.37-.25,3.43,3.43,0,0,1,2.62,3.57.31.31,0,0,1-.31.32A.26.26,0,0,1,212.67,104.39Z"/><path class="cls-22" d="M224.71,100.46s-1.83,1.09-2.74.76a2.77,2.77,0,0,1-1.33-1.18,6.84,6.84,0,0,1,.55-2.84C221.74,96.66,225.2,100.12,224.71,100.46Z"/><path class="cls-4" d="M243.36,88.17c-1.45,1.61-1.63,3.81-.4,4.92s3.4.72,4.85-.89,1.63-3.81.4-4.92S244.81,86.57,243.36,88.17Z"/><path class="cls-19" d="M242.65,87.66c-1.89,2.09-2.45,4.68-1.23,5.77s3.73.29,5.62-1.81,2.45-4.68,1.24-5.77S244.55,85.56,242.65,87.66Z"/><path class="cls-4" d="M231.28,77.25c-1.45,1.61-3.62,2-4.85.89s-1.05-3.31.4-4.91,3.63-2,4.86-.9S232.74,75.65,231.28,77.25Z"/><path class="cls-19" d="M231.87,77.9c-1.89,2.1-4.41,2.91-5.63,1.81s-.65-3.68,1.24-5.78,4.42-2.9,5.63-1.81S233.77,75.81,231.87,77.9Z"/><path class="cls-4" d="M228.52,74.34c-4,4.44-3.27,11.66,1.67,16.13s12.2,4.49,16.21,0,3.27-11.66-1.67-16.13S232.53,69.9,228.52,74.34Z"/><path class="cls-24" d="M230.79,77.63c-2.63,2.91-2,7.76,1.39,10.84s8.28,3.2,10.91.29,2-7.76-1.38-10.84S233.43,74.72,230.79,77.63Z"/><path class="cls-19" d="M230.13,77c-2.91,3.23-2.23,8.6,1.53,12s9.18,3.55,12.1.33,2.23-8.6-1.53-12S233.05,73.81,230.13,77Zm.71,1c2.54-2.8,7.24-2.67,10.5.28s3.86,7.62,1.33,10.42-7.23,2.67-10.5-.28S228.31,80.85,230.84,78.05Z"/><path class="cls-25" d="M240.61,88.45c2.4-2.66,1.84-7.08-1.26-9.88a8.49,8.49,0,0,0-3.46-1.91,7.84,7.84,0,0,1,5.06,2.1c3,2.7,3.54,7,1.22,9.54a5.82,5.82,0,0,1-4.38,1.84A5.75,5.75,0,0,0,240.61,88.45Z"/><path class="cls-26" d="M423.32,160a24.43,24.43,0,1,0-11.2-32.67A24.43,24.43,0,0,0,423.32,160Z"/><path class="cls-27" d="M425,156.6A20.65,20.65,0,1,0,415.5,129,20.66,20.66,0,0,0,425,156.6Z"/><path class="cls-28" d="M433,155.28c-.17.75-2.39.51-3-.19s-.14-1.42,1-1.45S433.17,154.53,433,155.28Zm-16.92-7.06a20.57,20.57,0,0,0,8,7.91c.47-.28,2.56.2,3-.06.83-.46.84-1.35.61-2.27-.14-.54-1.38-1.6-1.59-2.13a1.71,1.71,0,0,1,2-2.12c1.06.34,1.6,1.68,2.69,1.91s1.89-.65,2.87-.94c1.52-.46,3.07.45,4.56,1,1.12.41,1.86,2.54,3.06,2.54.84-.39,1.12-3.59.59-4.36s-1.31-1.5-1.25-2.43c0-.43.24-.84.24-1.27,0-1.53-2.38-1.77-3.18-3.08a5.41,5.41,0,0,1-.37-2.58c-.09-1.37-.94-3.34-2.36-3.83a.61.61,0,0,0-.35,0c-.33.09-.37.53-.55.81-.37.61-1.68.23-2.33.52s-.48,1-.44,1.6c0,.21.08.42.12.63.13.74-.38,3-1.61,2.51a.79.79,0,0,1-.25-.19,3,3,0,0,1-.79-3c.3-1,1.64-1.16,2.34-1.89s2.12-2.07,2.22-3.08-2-2.19-3-2.06a3.08,3.08,0,0,0-1.62,1.18,8.4,8.4,0,0,1-4.86,2.49c-1.26.17-3.68-1.31-4.19-.15-.28.61-.49,2.57-.69,3.21-.27.88-1.8,1.2-2.25,2-.76,1.36.69,2.76.18,4.23C416.58,146.18,416.9,147.74,416.08,148.22Zm7.77-20.66c-.79,0-2.64.46-2.59-.33a13.74,13.74,0,0,1,1-3,25,25,0,0,0,1.48-2.48,4.93,4.93,0,0,1,2-2.4c.26-.18.69-.38,1.08-.6a20.59,20.59,0,0,1,14.19-.15c-.93.76-2.61.74-3.42,1.73-.36.44-.5,1-.86,1.45a1.84,1.84,0,0,1-3-.81,5.35,5.35,0,0,0-.2-1.28,1.6,1.6,0,0,0-1.88-.58,6.54,6.54,0,0,0-3,2.38c-.72.85-1.47,2.09-.8,3,.51.69,4.89-.92,5.06-.07.13.69-2.78,2.95-3.43,3.21a6.61,6.61,0,0,1-3.81.16C424.77,127.76,424.64,127.6,423.85,127.56Zm28.25,8.59a8.65,8.65,0,0,0-2.64-.48c-1.23.12-2.19,1.07-3.28,1.66s-2.77.61-3.23-.53c-.37-.93.32-2,.21-2.94-.07-.67-.5-1.27-.52-1.94a4.83,4.83,0,0,1,.87-2.17c1.07-2.12-.57-3.5-1.36-5.49a3.09,3.09,0,0,1-.08-2.12c.12-.38.32-.73.41-1.12a6.14,6.14,0,0,0-.08-1.86l.73.34a22.74,22.74,0,0,1,2,1.11,1.47,1.47,0,0,1-.49.23,1.79,1.79,0,0,0-.82.48,1,1,0,0,0-.27.88,1.13,1.13,0,0,0,.28.5,1.42,1.42,0,0,0,1.23.57,4.5,4.5,0,0,1,1.32,0c.74.13,1.69.52,1.69,1.41,0,.45-.28.85-.31,1.3,0,.8.7,1.41,1.45,1.71a7.21,7.21,0,0,1,2.17,1c.91.8,1,2.25,1.89,3.08a2.92,2.92,0,0,0,.59.44,20.24,20.24,0,0,1,.79,4.3c-1,.31-1.22-.14-2.24-.29Zm-29.88-4.48c-1,.2-1.86,1.37-.85,1.73s2.76.29,2.32-.35S423.34,131.44,422.22,131.67Zm-4.64,2c-1.31.89-3.71,4.54-2,4.91a2.24,2.24,0,0,0,2.66-2.35C418.11,135.14,418.8,132.85,417.58,133.68Z"/><path class="cls-29" d="M59.91,90.86A11.18,11.18,0,1,0,75,86.13,11.17,11.17,0,0,0,59.91,90.86Z"/><path class="cls-30" d="M67.48,100.51a40,40,0,0,1-8.73-6.05,11.23,11.23,0,0,1,1.16-3.6c.16-.3.33-.59.51-.86a23.49,23.49,0,0,0,5.36,4.71,32.93,32.93,0,0,0,8,4.09,22.61,22.61,0,0,0,6.39,1.51c-.13.3-.27.61-.42.9a11.34,11.34,0,0,1-2.3,3A39.92,39.92,0,0,1,67.48,100.51Z"/><path class="cls-31" d="M69.68,106.43a10.32,10.32,0,1,1,5-19.46l.11.06c-.62.08-.75.65.23,1.88,1.46,1.84.3,3-1.11,2.64a23,23,0,0,0-6-.6c-2,.19-1.53,1.23-.4,2.24,1.38,1.23,5,2.94,4.45,3.94s-4.32.49-4.06,1.7,3.27,3.86,4.78,2.85,3.64.75,2,1.78-5.31.72-5,2.11A1.75,1.75,0,0,1,69.68,106.43Z"/><path class="cls-32" d="M71,97.7c-1.29.32-3.25.23-3.06,1.13.26,1.21,3.27,3.86,4.78,2.85s3.64.75,2,1.78l-.08.05a43.26,43.26,0,0,1-7.21-3,41.8,41.8,0,0,1-7.86-5.26,10.61,10.61,0,0,1,1.14-3.92c.1-.19.21-.37.32-.56a25.36,25.36,0,0,0,4.7,3.94A34,34,0,0,0,71,97.7Z"/><path class="cls-31" d="M77.65,98.16c-1.67.77-2.55-1.82-2-2.69s1.49-1.74,1.59-3,1.94.09,2.13,1.12C79.66,95,79.31,97.38,77.65,98.16Z"/><path class="cls-33" d="M62.46,87c-.2.16-.39.33-.58.5-1.66-.27-2.8-.14-3.13.48-.67,1.28,2.3,4.22,7,7.13a46.79,46.79,0,0,0,7.71,4c4.83,2,8.68,2.69,9.33,1.45.33-.62-.21-1.63-1.39-2.85,0-.25.06-.5.08-.75,3.36,2.73,5.14,5.22,4.43,6.59-1.23,2.34-9.24.56-17.9-4S53.3,89.41,54.52,87.08C55.24,85.71,58.3,85.76,62.46,87Z"/><path class="cls-34" d="M186.73,144.76a6.93,6.93,0,0,0,3.42,2.51,9.33,9.33,0,0,1-1.46-2.78,11.39,11.39,0,0,0,3,2.7,7.45,7.45,0,0,0,3.63,1.35,7.36,7.36,0,0,0,.3-3.83,7,7,0,0,0-1.43-3.77,7,7,0,0,1,2.07,2.41,7.32,7.32,0,0,0-.88-4.34c-2.17-3.39-3.86-1.94-6.51-.25S184.43,141.3,186.73,144.76Z"/><path class="cls-22" d="M186.52,126.2s8.83-.76,13.63,6.77c0,0,.12,1.09-1.18.52s-3.61-2.93-7.83-.23Z"/><path class="cls-22" d="M178.71,131.19s-4.4,7.69.41,15.22c0,0,.94.56,1-.86s-1.14-4.51,3.08-7.2Z"/><path class="cls-19" d="M171.9,128.11c4.07,6.38,7.7,9.08,11.79,11l3.95-2.53,4-2.53c0-4.5-.94-8.93-5-15.31a34.35,34.35,0,0,0-6.73-7.68l-6,3.86-6.05,3.87A34.85,34.85,0,0,0,171.9,128.11Zm2.08-4a4.8,4.8,0,1,1,6.64,1.47A4.81,4.81,0,0,1,174,124.11Z"/><path class="cls-35" d="M183.75,139.06l3.9-2.49,3.9-2.49a.21.21,0,0,1,.3.07l.56.86a.22.22,0,0,1-.07.3l-3.9,2.5-3.9,2.49a.22.22,0,0,1-.3-.07l-.55-.86A.22.22,0,0,1,183.75,139.06Z"/><path class="cls-4" d="M174,124.11a4.8,4.8,0,1,0,1.46-6.64A4.81,4.81,0,0,0,174,124.11Zm1.28-.81a3.29,3.29,0,1,1,4.55,1A3.3,3.3,0,0,1,175.26,123.3Z"/><path class="cls-24" d="M176.26,118.75a3.29,3.29,0,1,1-1,4.55A3.3,3.3,0,0,1,176.26,118.75Z"/><path class="cls-22" d="M168.77,107c1.32-.85,5.73-.54,11.08,4l-6,3.86-6.05,3.87C165.87,112,167.45,107.87,168.77,107Z"/><path class="cls-22" d="M183.67,130.91l.06,0h0l.19-.12.21-.13h0l.08,0,.15,0a1,1,0,0,1,1.17.47l4.19,7.84.24.38.17.29a.24.24,0,0,1,0,.28.38.38,0,0,1-.09.09h0l-.19.12-.21.13h0a.26.26,0,0,1-.35-.08l-.18-.28-.27-.4-5.35-7.09A1.05,1.05,0,0,1,183.67,130.91Z"/></svg>